<?xml version="1.0" encoding="utf-8"?><svg version="1" xmlns="http://www.w3.org/2000/svg" xmlns:xlink="http://www.w3.org/1999/xlink" viewBox="0 0 784.1 348.3"><defs><path id="a" d="M212 136h51.2l10.9 23h33.7l-70-149.3L167.6 159h33.5l10.9-23zm6.2-28.3l11-40.4c.6-2.3 3.6-2.8 5-.9l24 34.2c1.5 2.1-.4 4.9-2.9 4.3l-11.7-2.8 2.9 16.7c.3 1.5-.8 3-2.3 3.2l-5.6 1c-1.5.3-3-.7-3.2-2.3l-2.9-16.7-10.1 6.6c-2.1 1.6-4.9-.4-4.2-2.9zM38.9 159h-30V9H39l42.5 61.6 43-61.6h30.3v150h-31V63.2l-42.4 61.6-42.5-61.6V159zM371 104.4c-1.8-6.9-2.7-13.7-2.7-20.3 0-1.4.1-3.8.4-7.2.3-3.4.7-6.7 1.4-9.8.9-3.8 2.4-7.9 4.4-12.4 2-4.5 4.4-8.8 7.4-13.1 3-4.3 6.4-8.3 10.4-12.2 3.9-3.9 8.3-7.2 13.2-10 6.9-4.1 13.5-6.7 19.9-7.9.3 0 .9-.1 1.9-.4 1-.3 2.2-.6 3.5-.9 1.3-.3 2.6-.6 3.9-.8 1.3-.2 2.3-.3 3.1-.3H464v30h-24.7c-.3 0-1.1.2-2.4.5-1.4.3-2.4.6-3.2.7-2.4.3-5.1 1.1-8 2.5-2.9 1.4-5.8 3.2-8.6 5.4s-5.4 4.6-7.8 7.3c-2.4 2.7-4.2 5.5-5.4 8.3-.3.7-.6 1.5-1.1 2.3-.5.9-.8 1.7-1.1 2.5-1.1 3.1-1.8 5.7-2 7.8-.3 2.1-.4 4.4-.4 7 0 3.6.5 7.5 1.4 11.5.9 4 2.5 7.8 4.7 11.5 2.2 3.6 5 7.1 8.4 10.2 3.4 3.2 7.7 5.8 12.7 8 .5.3 1.4.6 2.6 1 1.2.4 2.5.8 3.8 1.1 1.3.3 2.5.6 3.8.9 1.2.3 2.2.4 3 .4h24.5v31h-26.4c-.3 0-.9-.1-1.8-.2s-1.8-.3-2.4-.4c-2.4-.4-4.8-.8-7.1-1.2-2.3-.4-4.8-1.2-7.5-2.2-9.1-3.4-16.8-7.7-23.1-13.1-6.4-5.3-11.6-11.2-15.6-17.6-4.5-6.4-7.5-13-9.3-19.9zM351.9 159h-31V9h31v150zM616 200.7c-7.4-7.4-16-13.3-25.9-17.7-9.9-4.3-20.6-6.5-32.1-6.5-11.4 0-22 2.1-31.8 6.4-9.9 4.3-18.5 10.1-26 17.6-7.4 7.4-13.3 16.1-17.6 26.1-4.3 9.9-6.4 20.5-6.4 31.7 0 11.4 2.1 22 6.4 31.8 4.3 9.9 10.1 18.5 17.6 25.9 7.4 7.4 16.1 13.2 26 17.5 9.9 4.3 20.5 6.4 31.8 6.4s22-2.1 31.8-6.4c9.9-4.3 18.5-10.1 25.9-17.4 7.4-7.3 13.2-15.9 17.5-25.8 4.3-9.9 6.4-20.5 6.4-31.8 0-11.2-2.1-21.8-6.3-31.7-4.2-10-10-18.7-17.3-26.1zm-13.4 76.7c-2.6 5.8-6.1 10.9-10.5 15.3-4.4 4.3-9.6 7.8-15.5 10.3-5.9 2.5-12.1 3.8-18.6 3.8-6.6 0-12.9-1.3-18.8-3.9-5.9-2.6-11.1-6.1-15.5-10.5s-7.9-9.5-10.4-15.4c-2.5-5.8-3.8-12-3.8-18.5 0-1.9.1-3.7.3-5.3.2-1.6.5-3.2.8-4.9.9-5 2.9-10.1 6-15.3 2.5-4.1 5.4-7.7 8.7-10.6 3.3-2.9 6.8-5.4 10.5-7.3 3.7-1.9 7.4-3.3 11.1-4.2 3.7-.9 7.2-1.3 10.6-1.3.3 0 1.3.1 3.1.2s3.3.4 4.6.7c1.2.3 2.6.6 4.2.8 1.6.2 3 .6 4.2 1 5.9 2.2 10.9 5.1 15 8.5 4.1 3.5 7.5 7.3 10.2 11.4 2.7 4.1 4.6 8.5 5.7 13 1.2 4.6 1.8 9 1.8 13.3.2 6.8-1.1 13.1-3.7 18.9zM431.9 177h32.9v163h-33V235.9l-45.9 67-46.1-67V340h-34V177H339l46.2 66.9 46.7-66.9zm239-18h-31V9H670l66.9 95.9V9h31v150h-30.1l-66.9-95.9V159zm-175.2-22.2c6.8 6.8 14.8 12.1 23.9 16.1 9.1 3.9 18.9 5.9 29.3 5.9 10.4 0 20.2-2 29.3-5.9 9.1-3.9 17-9.3 23.8-16 6.8-6.7 12.1-14.6 16.1-23.7 3.9-9.1 5.9-18.9 5.9-29.3 0-10.3-1.9-20-5.8-29.2s-9.2-17.2-16-24c-6.8-6.8-14.7-12.3-23.8-16.3-9.1-4-18.9-6-29.5-6-10.4 0-20.2 2-29.3 5.9-9.1 3.9-17.1 9.3-23.9 16.2-6.8 6.9-12.2 14.9-16.2 24-3.9 9.2-5.9 18.9-5.9 29.2 0 10.4 2 20.2 5.9 29.3 3.9 9.1 9.3 17.1 16.2 23.8zm8.9-57.7c.2-1.5.4-3 .7-4.5.8-4.6 2.6-9.3 5.5-14 2.3-3.8 5-7.1 8-9.8 3.1-2.7 6.3-4.9 9.7-6.7 3.4-1.8 6.8-3.1 10.2-3.9 3.4-.8 6.6-1.2 9.8-1.2.3 0 1.2.1 2.8.2 1.6.1 3.1.3 4.3.6 1.1.3 2.4.5 3.9.7 1.5.2 2.8.5 3.9.9 5.4 2 10 4.6 13.8 7.8 3.8 3.2 6.9 6.7 9.4 10.5 2.4 3.8 4.2 7.8 5.3 12 1.1 4.2 1.6 8.3 1.6 12.2 0 6.2-1.2 12-3.6 17.4-2.4 5.4-5.6 10-9.7 14s-8.8 7.2-14.2 9.5c-5.4 2.3-11.1 3.5-17.1 3.5-6.1 0-11.9-1.2-17.3-3.6-5.4-2.4-10.2-5.6-14.2-9.7-4.1-4.1-7.3-8.8-9.6-14.1-2.3-5.4-3.5-11-3.5-17 0-1.7.1-3.3.3-4.8zM139.8 340h36.5l11.8-25H244l11.8 25h36.7l-76.3-162.6L139.8 340zm63.8-59l12.6-26.5 12.4 26.5h-25zm-90.3-31.3c3.5-7.6 5.2-15.1 5.2-22.3 0-3.4-.4-6.8-1.1-10.1-.7-4-2.1-8-4.1-12.1-2-4.1-4.8-8.1-8.3-11.9-3.1-3.4-6.2-6-9.4-7.9-3.2-1.9-6.5-3.6-9.9-5.1-.7-.3-1.8-.6-3.1-1s-2.8-.7-4.3-1.1c-1.5-.4-3-.7-4.4-.9-1.4-.2-2.5-.3-3.4-.3H10.9v163h33v-63h17.7L90 340h36.3L95 270c8.7-5.9 14.8-12.6 18.3-20.3zm-30.5-14.1c-1.6 3.1-4.4 5.5-8.6 7.1-.7.3-1.7.6-2.8.9-1.1.3-1.8.4-2.1.4H43.9v-35h25.4c.3 0 1 .1 2.1.3 1.1.2 2 .5 2.8.8 4.2 1.8 7 4.2 8.6 7.3 1.6 3.1 2.3 6.1 2.3 9.1s-.8 6-2.3 9.1zm681 49.8c.7 3.6 1 7.2 1 10.7 0 4.3-.5 8.4-1.5 12.3-1 3.9-2.7 7.6-5.1 10.9-2.4 3.4-5.5 6.6-9.4 9.5-3.9 2.9-8.7 5.5-14.5 7.7-1.3.4-2.9.9-4.6 1.3s-3.6.8-5.5 1c-1.9.2-3.9.4-5.9.6-2 .1-3.7.2-5.2.2-1.8 0-3.2 0-4.3-.1-1.1-.1-2.2-.1-3.3-.2-1.1-.1-2-.2-2.8-.3-3.4-.4-7-1.3-10.9-2.4-3.9-1.2-7.8-2.8-11.6-5-3.8-2.1-7.5-4.8-10.9-8-3.5-3.2-6.4-7-9-11.4-.4-.7-.9-1.6-1.4-2.5-.5-1-1-1.9-1.4-2.8L685 293h.7c1.3 2.8 3 5.2 5.1 7.1 2.1 1.9 4.3 3.5 6.6 4.6 2.4 1.2 4.8 2 7.2 2.5 2.4.5 4.7.8 6.7.8 2.4 0 4.7-.2 7-.6 2.3-.4 4.3-1.1 6.2-2.1 1.8-1 3.4-2.5 4.5-4.4 1.2-1.9 1.8-4.4 1.8-7.5 0-6.3-4.3-11.7-13-16.1-.4-.1-1.4-.6-2.9-1.4-1.5-.8-3.1-1.7-4.9-2.7-1.8-1-3.6-2-5.6-3-2-1-3.7-1.9-5.2-2.7l-2.4-1.2c-1-.5-2-.9-2.9-1.2-1.3-.7-2.8-1.5-4.3-2.3-1.5-.8-3.1-1.6-4.5-2.3-4.6-2.5-8.3-5.3-11.3-8.5-2.9-3.2-5.3-6.5-7-9.9-1.7-3.5-2.9-7-3.5-10.6-.7-3.6-1-7.2-1-10.7 0-.3.1-1.5.2-3.8.1-2.2.4-4.1.7-5.7.1-.4.3-1.1.4-1.9.1-.8.4-1.6.7-2.3.3-.7.7-1.7 1.2-2.9s1.1-2.3 1.7-3.3c1.3-2.5 3-4.8 5.1-7 2.1-2.1 4.3-4.1 6.6-5.9 2.4-1.8 4.8-3.3 7.2-4.6 2.4-1.3 4.8-2.4 7-3.1 3.4-1.2 6.9-2 10.6-2.5 3.7-.5 7.2-.8 10.6-.8 1.6.1 3 .3 4.1.3 1.1.1 2.2.1 3.4.2 1.2.1 2.1.1 2.9.1 3.4.4 7 1.3 10.9 2.4 3.9 1.2 7.8 2.9 11.6 5.1 3.8 2.2 7.5 4.9 10.9 8.1 3.5 3.2 6.4 6.9 9 11.2.3.7.7 1.6 1.3 2.7.6 1 1.1 1.9 1.5 2.7l-28.3 14.1c-1.3-2.8-3-5.2-5.1-7.1-2.1-1.9-4.3-3.5-6.6-4.8-2.4-1.2-4.8-2.1-7.3-2.7-2.5-.5-4.8-.8-6.9-.8-2.2 0-4.5.2-6.7.6-2.3.4-4.3 1.1-6.2 2.1-1.8 1-3.4 2.5-4.5 4.5-1.2 2-1.8 4.5-1.8 7.6 0 2.2.7 4.7 2.2 7.4 1.5 2.7 3.9 5 7.3 6.7.6.3 1.2.6 1.8 1 .6.4 1.2.7 1.8 1 3.1 1.6 6.2 3.2 9.3 4.9 3.1 1.6 6.2 3.2 9.3 4.6.7.4 1.7.9 2.8 1.4 1.1.5 2 1 2.8 1.4 1.3.6 2.8 1.3 4.4 2.1 1.6.8 3 1.6 4.2 2.3 4.6 2.7 8.3 5.5 11.3 8.6 2.9 3.1 5.2 6.4 6.9 9.8 1.4 3.7 2.5 7.3 3.2 10.9z"/></defs><clipPath id="b"><use xlink:href="#a" overflow="visible"/></clipPath><linearGradient id="c" gradientUnits="userSpaceOnUse" x1="-219.338" y1="183.542" x2="1076.342" y2="183.542" gradientTransform="rotate(28.03 439.306 174.117)"><stop offset="0" stop-color="#08aeea"/><stop offset=".19" stop-color="#0bb5e2"/><stop offset=".478" stop-color="#14c7ce"/><stop offset=".826" stop-color="#22e4ac"/><stop offset="1" stop-color="#2af598"/></linearGradient><path clip-path="url(#b)" fill="url(#c)" d="M729.8-394.5l267.4 876.3-876.3 267.4-267.4-876.3z"/></svg>